<svg xmlns="http://www.w3.org/2000/svg" width="24" height="24" viewBox="0 0 24 24" fill="none" stroke="#0ea5e9" stroke-width="2" stroke-linecap="round" stroke-linejoin="round">
  <path d="M9.5 2A2.5 2.5 0 0 1 12 4.5v15a2.5 2.5 0 0 1-4.96.44 2.5 2.5 0 0 1-1.98 1 2.5 2.5 0 0 1-2.09-3.75 2.5 2.5 0 0 1-.97-2 2.5 2.5 0 0 1 3.06-2.39A2.5 2.5 0 0 1 6.5 10"></path>
  <path d="M14.5 2A2.5 2.5 0 0 0 12 4.5v15a2.5 2.5 0 0 0 4.96.44 2.5 2.5 0 0 0 1.98 1 2.5 2.5 0 0 0 2.09-3.75 2.5 2.5 0 0 0 .97-2 2.5 2.5 0 0 0-3.06-2.39A2.5 2.5 0 0 0 17.5 10"></path>
</svg>